<?xml version="1.0" standalone="no"?>
<!DOCTYPE svg PUBLIC "-//W3C//DTD SVG 20010904//EN"
 "http://www.w3.org/TR/2001/REC-SVG-20010904/DTD/svg10.dtd">
<svg version="1.0" xmlns="http://www.w3.org/2000/svg"
 width="850.000000pt" height="850.000000pt" viewBox="0 0 850.000000 850.000000"
 preserveAspectRatio="xMidYMid meet">
<metadata>
Created by potrace 1.16, written by Peter Selinger 2001-2019
</metadata>
<g transform="translate(0.000000,850.000000) scale(0.100000,-0.100000)"
fill="#000000" stroke="none">
<path d="M5856 5264 c-18 -47 -8 -60 67 -89 223 -87 507 -234 712 -370 340
-225 582 -444 1121 -1014 246 -261 249 -265 247 -305 -1 -40 -1 -39 13 14 29
115 91 546 81 557 -1 1 -47 17 -101 37 -141 50 -221 102 -355 230 -65 61 -151
137 -192 168 -323 243 -850 514 -1416 729 -87 32 -160 59 -164 59 -4 0 -10 -7
-13 -16z"/>
<path d="M5496 4147 c-26 -45 -57 -112 -67 -150 -11 -37 -75 -206 -143 -375
-202 -500 -319 -842 -297 -865 20 -20 298 -106 481 -147 450 -102 855 -129
1655 -111 278 6 510 9 514 7 10 -6 155 293 204 419 56 146 119 344 114 358 -4
7 -6 6 -6 -4 -1 -14 -8 -15 -43 -8 -24 4 -171 31 -328 59 -502 89 -816 167
-891 220 -39 28 -37 57 6 111 19 24 35 55 35 69 0 94 -172 190 -589 329 -168
57 -561 171 -582 171 -8 -1 -36 -38 -63 -83z"/>
</g>
</svg>
